?xml version="1.0" encoding="utf-8"?>
<!-- Generator: Adobe Illustrator 22.0.1, SVG Export Plug-In . SVG Version: 6.00 Build 0)  -->
<svg version="1.1" id="Layer_1" xmlns="http://www.w3.org/2000/svg" xmlns:xlink="http://www.w3.org/1999/xlink" x="0px" y="0px"
	 viewBox="0 0 53 53" style="enable-background:new 0 0 53 53;" xml:space="preserve">
<g>
	<g>
		<path d="M35.8974609,5.0517578C33.0187988,3.7855225,29.8413086,3.0773926,26.5,3.0773926
			c-2.6115723,0-5.1218262,0.4360352-7.4694824,1.2282715l16.8669434,16.8842773V5.0517578z"/>
	</g>
	<g>
		<path d="M5.057251,17.0900879c-1.2697754,2.8820801-1.9801025,6.0639648-1.9801025,9.4101563
			c0,2.6162109,0.4376221,5.1307373,1.232666,7.4820557l16.875-16.8922119H5.057251z"/>
	</g>
	<g>
		<path d="M17.9938965,4.6828613C12.560791,6.8085938,8.1104736,10.9040527,5.5258789,16.0900879h23.8635254L17.9938965,4.6828613z"
			/>
	</g>
	<g>
		<path d="M48.6884766,19.0129395L31.8146973,35.9040527h16.1308594c1.2680664-2.8803711,1.9772949-6.0600586,1.9772949-9.4038086
			C49.9228516,23.8820801,49.4846191,21.3657227,48.6884766,19.0129395z"/>
	</g>
	<g>
		<path d="M36.8974609,5.5197754v23.8815918l11.4128418-11.4246826
			C46.1809082,12.5471191,42.0839844,8.1005859,36.8974609,5.5197754z"/>
	</g>
	<g>
		<path d="M17.1020508,47.947998C19.980957,49.2143555,23.1584473,49.9226074,26.5,49.9226074
			c2.6130371,0,5.1246338-0.4365234,7.4735107-1.2297363l-16.87146-16.8891602V47.947998z"/>
	</g>
	<g>
		<path d="M35.0098877,48.3155518c5.4334717-2.1269531,9.883667-6.223999,12.4671631-11.411499H23.6103516L35.0098877,48.3155518z"
			/>
	</g>
	<g>
		<path d="M16.1020508,47.4799805v-23.887207L4.6877441,35.0187988
			C6.8166504,40.4501953,10.9143066,44.8984375,16.1020508,47.4799805z"/>
	</g>
</g>
</svg>
