<?xml version="1.0" encoding="UTF-8"?>
<svg id="Layer_1" xmlns="http://www.w3.org/2000/svg" version="1.1" viewBox="0 0 12 12">
  <!-- Generator: Adobe Illustrator 29.1.0, SVG Export Plug-In . SVG Version: 2.1.0 Build 142)  -->
  <defs>
    <style>
      .st0 {
        fill: #fff;
      }
    </style>
  </defs>
  <rect class="st0" x="6" y="1.5" width="1" height="4.1"/>
  <path class="st0" d="M9,2.5h-2v1h2v-1Z"/>
  <rect class="st0" x="9" y="1.5" width="1" height="4.1"/>
  <rect class="st0" x="7.5" width="1" height="2" transform="translate(7 9) rotate(-90)"/>
  <polyline class="st0" points="6 7 4 7 4 6 6 6 6 7"/>
  <polygon class="st0" points="4 8 4 7 2 7 2 8 1 8 1 10 2 10 2 11 7 11 7 10 8 10 8 8 7 8 7 7 6 7 6 8 7 8 7 10 2 10 2 8 4 8"/>
  <rect class="st0" x="4" y="8" width="1" height="1"/>
</svg>